name C:\Users\r0593348\3dpredictsim\Results\Batchsim_tmt_linear\Pog_s1_tmt_aCst_d05_k500_ig24_pas.mot
datacolumns 128
datarows 4
range 1.66310617 1.69636829
endheader
time	pelvis_tilt	pelvis_list	pelvis_rotation	pelvis_tx	pelvis_ty	pelvis_tz	hip_flexion_l	hip_adduction_l	hip_rotation_l	hip_flexion_r	hip_adduction_r	hip_rotation_r	knee_angle_l	knee_angle_r	ankle_angle_l	ankle_angle_r	subtalar_angle_l	subtalar_angle_r	tmt_angle_l	tmt_angle_r	mtp_angle_l	mtp_angle_r	lumbar_extension	lumbar_bending	lumbar_rotation	arm_flex_l	arm_add_l	arm_rot_l	arm_flex_r	arm_add_r	arm_rot_r	elbow_flex_l	elbow_flex_r	pro_sup_l	pro_sup_r	glut_med1_l/activation	glut_med2_l/activation	glut_med3_l/activation	glut_min1_l/activation	glut_min2_l/activation	glut_min3_l/activation	semimem_l/activation	semiten_l/activation	bifemlh_l/activation	bifemsh_l/activation	sar_l/activation	add_long_l/activation	add_brev_l/activation	add_mag1_l/activation	add_mag2_l/activation	add_mag3_l/activation	tfl_l/activation	pect_l/activation	grac_l/activation	glut_max1_l/activation	glut_max2_l/activation	glut_max3_l/activation	iliacus_l/activation	psoas_l/activation	quad_fem_l/activation	gem_l/activation	peri_l/activation	rect_fem_l/activation	vas_med_l/activation	vas_int_l/activation	vas_lat_l/activation	med_gas_l/activation	lat_gas_l/activation	soleus_l/activation	tib_post_l/activation	flex_dig_l/activation	flex_hal_l/activation	tib_ant_l/activation	per_brev_l/activation	per_long_l/activation	per_tert_l/activation	ext_dig_l/activation	ext_hal_l/activation	ercspn_l/activation	intobl_l/activation	extobl_l/activation	glut_med1_r/activation	glut_med2_r/activation	glut_med3_r/activation	glut_min1_r/activation	glut_min2_r/activation	glut_min3_r/activation	semimem_r/activation	semiten_r/activation	bifemlh_r/activation	bifemsh_r/activation	sar_r/activation	add_long_r/activation	add_brev_r/activation	add_mag1_r/activation	add_mag2_r/activation	add_mag3_r/activation	tfl_r/activation	pect_r/activation	grac_r/activation	glut_max1_r/activation	glut_max2_r/activation	glut_max3_r/activation	iliacus_r/activation	psoas_r/activation	quad_fem_r/activation	gem_r/activation	peri_r/activation	rect_fem_r/activation	vas_med_r/activation	vas_int_r/activation	vas_lat_r/activation	med_gas_r/activation	lat_gas_r/activation	soleus_r/activation	tib_post_r/activation	flex_dig_r/activation	flex_hal_r/activation	tib_ant_r/activation	per_brev_r/activation	per_long_r/activation	per_tert_r/activation	ext_dig_r/activation	ext_hal_r/activation	ercspn_r/activation	intobl_r/activation	extobl_r/activation	
          1.66310617	         -2.92287915	          2.49921761	         -6.35898733	          2.07888271	          0.85467808	          0.00326138	         31.99883193	          3.30773144	         -2.98530292	        -18.44232756	         -2.34317935	          7.65094310	        -15.51733398	         -8.68329534	          6.19086330	         -0.19373096	         -3.13039799	         11.86292354	          0.06574908	          2.00728222	         -0.09983513	         22.24426984	         -2.10427843	         -1.04857711	          2.09838470	        -10.69060310	        -13.57500466	          6.59749021	          8.13653131	        -13.47340991	         17.75915976	         14.11889890	         40.58270338	         86.51662706	         86.51662706	          0.05923945	          0.05923946	          0.05000005	          0.05923952	          0.05923951	          0.05923897	          0.05001310	          0.05000044	          0.28683505	          0.05000012	          0.05000028	          0.11672863	          0.26908903	          0.12107597	          0.13368364	          0.12914518	          0.05000007	          0.07025138	          0.08296960	          0.05000012	          0.05000010	          0.15603872	          0.05923990	          0.05844450	          0.35851139	          0.20867207	          0.13467205	          0.05981858	          0.18793538	          0.18604650	          0.16179267	          0.05000012	          0.05000009	          0.05281679	          0.05000000	          0.05000020	          0.05000017	          0.62264823	          0.35840933	          0.20395237	          0.39198039	          0.59243206	          0.32821182	          0.05923984	          0.08769250	          0.09016332	          0.24342697	          0.08756768	          0.05558513	          0.29355815	          0.19366299	          0.09552676	          0.05000127	          0.05000012	          0.05000009	          0.07272916	          0.09883384	          0.11673037	          0.14369612	          0.05000877	          0.05000205	          0.05000039	          0.30146290	          0.11503132	          0.05000454	          0.05000083	          0.05000056	          0.05000052	          0.35623083	          0.59196929	          0.05000022	          0.05000046	          0.05000013	          0.21472581	          0.12444962	          0.08971480	          0.07005954	          0.28681600	          0.38781833	          0.26707507	          0.24637112	          0.27333557	          0.34349358	          0.05000000	          0.06093576	          0.15179992	          0.05000005	          0.05000001	          0.05000006	          0.05000094	          0.05000031	          0.05000018	
          1.67419354	         -2.91133385	          2.60845073	         -6.61154399	          2.09600531	          0.85353610	          0.00302959	         31.33381917	          3.71065371	         -2.75195065	        -18.12783673	         -2.66239282	          7.44444850	        -15.80097966	        -10.98865332	          5.54466703	         -1.22248104	         -3.63847993	         12.92534530	          0.06343363	          1.88680080	         -0.07185876	         23.30969486	         -1.87487820	         -1.29938110	          2.18565370	        -11.86218333	        -13.56751679	          6.46819449	          7.86016771	        -13.49576252	         17.92535550	         14.06938578	         41.80722135	         86.51662706	         86.51662706	          0.05000001	          0.05000004	          0.13144574	          0.05000005	          0.05000005	          0.05000006	          0.05000003	          0.05000007	          0.24209791	          0.05000004	          0.05000069	          0.09852273	          0.22711981	          0.33831674	          0.22945435	          0.13744929	          0.05000056	          0.05929566	          0.08934481	          0.09749745	          0.11573015	          0.13170188	          0.05000040	          0.05012511	          0.44534061	          0.17612588	          0.11366751	          0.05923967	          0.21163908	          0.22686957	          0.18748862	          0.05000007	          0.05000042	          0.05000000	          0.05923947	          0.07018666	          0.07018626	          0.54112058	          0.38879060	          0.23769869	          0.33084398	          0.57244236	          0.27702123	          0.05000031	          0.07401525	          0.07610071	          0.20546011	          0.07390991	          0.05923937	          0.24777244	          0.16345774	          0.08062764	          0.05000141	          0.05000019	          0.05000042	          0.06138573	          0.08341896	          0.21198100	          0.24657787	          0.08856876	          0.05924022	          0.05924011	          0.25444435	          0.09709102	          0.05000072	          0.05006202	          0.05786409	          0.05923942	          0.30067015	          0.54018670	          0.05923945	          0.05923943	          0.05000105	          0.18123542	          0.13829837	          0.13829841	          0.13829836	          0.24208180	          0.32733098	          0.22541984	          0.20794507	          0.23070399	          0.28991955	          0.05000000	          0.05143175	          0.14436579	          0.05000003	          0.05000001	          0.05000004	          0.06698180	          0.05923950	          0.05000007	
          1.68528092	         -2.89575796	          2.71581141	         -6.82991991	          2.11333324	          0.85236329	          0.00280717	         30.48448066	          4.04323868	         -2.47349981	        -17.70889199	         -2.96045940	          7.22118183	        -16.27606474	        -13.45598426	          5.09680776	         -2.42118161	         -4.17784642	         13.90451366	         -0.05156293	          1.72109151	         -0.19690437	         24.15910587	         -1.63074742	         -1.55203888	          2.26213861	        -13.00847397	        -13.56516251	          6.41047892	          7.50048331	        -13.52018856	         18.01501464	         14.01982418	         42.99854311	         86.51662706	         86.51662706	          0.27375297	          0.29449441	          0.37284487	          0.38117553	          0.22957592	          0.19002720	          0.07616436	          0.09176377	          0.20433834	          0.08315538	          0.05000602	          0.08315634	          0.19169636	          0.28555014	          0.19366687	          0.15600735	          0.05000012	          0.05004843	          0.07606878	          0.21998288	          0.18183304	          0.12661515	          0.05000019	          0.05000009	          0.37588165	          0.14865592	          0.24442856	          0.05000018	          0.17863017	          0.19148540	          0.15824642	          0.05000033	          0.05000025	          0.05050265	          0.05000001	          0.05923982	          0.05923950	          0.59696223	          0.40948362	          0.20062589	          0.61524132	          0.64657840	          0.31322193	          0.07235424	          0.08467759	          0.06423142	          0.28476971	          0.06238232	          0.05000001	          0.35495004	          0.13796356	          0.06805231	          0.06715889	          0.05000007	          0.05000004	          0.05181154	          0.07040850	          0.17891877	          0.20811963	          0.07475489	          0.05000076	          0.05000060	          0.28557335	          0.08314645	          0.05000028	          0.05000038	          0.05000021	          0.05000016	          0.25377521	          0.49937782	          0.05000003	          0.05000016	          0.05000004	          0.15296845	          0.11672823	          0.11672826	          0.11672822	          0.20432473	          0.27627774	          0.19026150	          0.17551225	          0.19472155	          0.24470135	          0.05075172	          0.10084557	          0.16801217	          0.05000016	          0.15339084	          0.05000050	          0.08247361	          0.05000002	          0.05000002	
          1.69636829	         -2.87814687	          2.81091308	         -7.00782547	          2.13062249	          0.85120477	          0.00255078	         29.56484654	          4.35950492	         -2.20028937	        -17.16327175	         -3.22782084	          6.99291578	        -16.70337305	        -16.09296534	          4.80242304	         -3.68226904	         -4.74429323	         14.79946459	         -0.03609244	          1.44989138	         -0.19579528	         24.57446830	         -1.39539470	         -1.79390211	          2.32768530	        -14.07044935	        -13.56240713	          6.43600371	          7.10369239	        -13.55225267	         18.05540870	         13.93179110	         44.12040686	         86.51662706	         86.51662706	          0.40715439	          0.45998614	          0.52979680	          0.32172504	          0.27180562	          0.43197155	          0.07851341	          0.12116979	          0.17246806	          0.07018589	          0.05000014	          0.07018662	          0.16179788	          0.24101406	          0.23926795	          0.18454169	          0.05000012	          0.05030966	          0.12461963	          0.30473340	          0.23307668	          0.18333698	          0.05000005	          0.05000005	          0.31725608	          0.12547037	          0.27127259	          0.05000001	          0.23622773	          0.26794489	          0.21294484	          0.05000000	          0.05000001	          0.05000000	          0.05000000	          0.05000034	          0.05000010	          0.72987812	          0.34561718	          0.16933463	          0.60713548	          0.65215292	          0.45790384	          0.09617677	          0.07147058	          0.05421336	          0.24035470	          0.05265269	          0.05000004	          0.29958915	          0.11644566	          0.05743835	          0.09207732	          0.05000017	          0.05000026	          0.05000003	          0.05942708	          0.20625703	          0.24767905	          0.06309588	          0.05007470	          0.11673018	          0.24103329	          0.07017849	          0.05000025	          0.05000167	          0.05000128	          0.05000113	          0.21419435	          0.43344440	          0.05000009	          0.05000038	          0.05000007	          0.12911023	          0.09852237	          0.09852239	          0.09852235	          0.17245656	          0.23318719	          0.16058674	          0.14813794	          0.16435124	          0.20653577	          0.15873631	          0.13032184	          0.14180782	          0.21378327	          0.23973758	          0.10285925	          0.11018005	          0.05000001	          0.05000001	
